<svg xmlns="http://www.w3.org/2000/svg" xml:space="preserve" viewBox="0 0 1000 1000" fill="#2f855a"><path d="M416.6 660c220.8 0 392-126.1 389.4-313.3 0-165.7-175.2-298-396.1-298C189.1 48.7 10 181 10 346.7c0 103.2 50.6 213.2 156.3 267.2 0 .7-.2 1.1-.2 1.8 0 44.8-37.3 106.4-52.1 131.7h.1c-1.2 2.7-1.9 5.7-1.9 8.9 0 12.5 10.1 22.7 22.7 22.7 1.9 0 4.8-.4 5.9-.4.3 0 .4 0 .4.1 78.1-12.8 193.4-100.7 210.5-121.5 17.5 2.6 29.4 3.1 44.1 3.1 6.3-.1 13-.3 20.8-.3zm-90-65.8-39.2 32.6c-9.1 10.4-48.6 43.4-82.6 64.8 20.7-59 19.7-77.7 19.7-77.7l2.9-37.4-33.3-17C109.3 516 71.2 425.8 71.2 346.7c0-131.6 152-236.9 338.7-236.9S744.8 215 744.8 346.7c-.5 146-139.5 253.1-326.2 253.1 0 0-28.5 1.1-57.8-3.2l-34.2-2.4zM990 594c0-83-32.4-146.2-113.3-193.7-2 22-8.6 50.7-15.1 66.6-122.8 299.6-500 255.5-502.2 257.5 60.8 74.2 160.2 121.1 284.9 121.1 6.8 0 12.5.1 17.9.1 12.7 0 22.9-.3 38.2-2.5 14.8 18 97.8 97 165.3 108.1 0-.1.1-.1.3-.1.9 0 3.5.3 5.2.3 10.9 0 19.6-8.8 19.6-19.6 0-2.7-.7-5.4-1.6-7.7h.1c-12.7-21.9-32.7-85.9-32.7-124.6 0-.6-.2-1-.2-1.5C947.7 751.2 990 683.1 990 594z"/><path d="M181.3 361.1c0 17.2 7.1 34.3 19.3 46.5 12.2 12.2 29.3 19.3 46.5 19.3s34.3-7.1 46.5-19.3c12.2-12.2 19.3-29.3 19.3-46.5s-7.1-34.3-19.3-46.5c-12.2-12.2-29.3-19.3-46.5-19.3s-34.3 7.1-46.5 19.3c-12.2 12.1-19.3 29.2-19.3 46.5zM533.9 361.1c0 17.2 7.1 34.3 19.3 46.5 12.2 12.2 29.3 19.3 46.5 19.3s34.3-7.1 46.5-19.3c12.2-12.2 19.3-29.3 19.3-46.5s-7.1-34.3-19.3-46.5c-12.2-12.2-29.3-19.3-46.5-19.3s-34.3 7.1-46.5 19.3c-12.2 12.1-19.3 29.2-19.3 46.5zM358.1 361.1c0 17.2 7.1 34.3 19.3 46.5 12.2 12.2 29.3 19.3 46.5 19.3s34.3-7.1 46.5-19.3c12.2-12.2 19.3-29.3 19.3-46.5s-7.1-34.3-19.3-46.5c-12.2-12.2-29.3-19.3-46.5-19.3s-34.3 7.1-46.5 19.3c-12.3 12.1-19.3 29.2-19.3 46.5z"/><path d="M177.1 361.1c0 17.2 7.1 34.3 19.3 46.5 12.2 12.2 29.3 19.3 46.5 19.3s34.3-7.1 46.5-19.3c12.2-12.2 19.3-29.3 19.3-46.5s-7.1-34.3-19.3-46.5c-12.2-12.2-29.3-19.3-46.5-19.3s-34.3 7.1-46.5 19.3c-12.2 12.1-19.3 29.2-19.3 46.5z"/></svg>